HIERARCHY
ROOT Hips
{
	OFFSET 0.000000 0.000000 0.000000 
	CHANNELS 6 Xposition Yposition Zposition Zrotation Yrotation Xrotation
	JOINT LeftUpLeg
	{
		OFFSET 1.363060 -1.794630 0.839290 
		CHANNELS 3 Zrotation Yrotation Xrotation
		JOINT LeftLeg
		{
			OFFSET 2.448110 -6.726130 0.000000 
			CHANNELS 3 Zrotation Yrotation Xrotation
			JOINT LeftFoot
			{
				OFFSET 2.562200 -7.039590 0.000000 
				CHANNELS 3 Zrotation Yrotation Xrotation
				JOINT LeftToeBase
				{
					OFFSET 0.157640 -0.433110 2.322550 
					CHANNELS 3 Zrotation Yrotation Xrotation
					End Site
					{
						OFFSET 0.000000 0.000000 0.000000 
					}
				}
			}
		}
	}
	JOINT RightUpLeg
	{
		OFFSET -1.305520 -1.794630 0.839290 
		CHANNELS 3 Zrotation Yrotation Xrotation
		JOINT RightLeg
		{
			OFFSET -2.542530 -6.985550 0.000000 
			CHANNELS 3 Zrotation Yrotation Xrotation
			JOINT RightFoot
			{
				OFFSET -2.568260 -7.056230 0.000000 
				CHANNELS 3 Zrotation Yrotation Xrotation
				JOINT RightToeBase
				{
					OFFSET -0.164730 -0.452590 2.363150 
					CHANNELS 3 Zrotation Yrotation Xrotation
					End Site
					{
						OFFSET 0.000000 0.000000 0.000000 
					}
				}
			}
		}
	}
	JOINT Spine
	{
		OFFSET 0.028270 2.035590 -0.193380 
		CHANNELS 3 Zrotation Yrotation Xrotation
		JOINT Spine1
		{
			OFFSET 0.056720 2.048850 -0.042750 
			CHANNELS 3 Zrotation Yrotation Xrotation
			JOINT Neck1
			{
				OFFSET -0.054170 1.746240 0.172020 
				CHANNELS 3 Zrotation Yrotation Xrotation
				JOINT Head
				{
					OFFSET 0.104070 1.761360 -0.123970 
					CHANNELS 3 Zrotation Yrotation Xrotation
					End Site
					{
						OFFSET 0.000000 0.000000 0.000000 
					}
				}
			}
			JOINT LeftArm
			{
				OFFSET 3.362410 1.200890 -0.311210 
				CHANNELS 3 Zrotation Yrotation Xrotation
				JOINT LeftForeArm
				{
					OFFSET 4.983000 -0.000000 -0.000000 
					CHANNELS 3 Zrotation Yrotation Xrotation
					JOINT LeftHand
					{
						OFFSET 3.483560 -0.000000 -0.000000 
						CHANNELS 3 Zrotation Yrotation Xrotation
						JOINT LeftHandIndex1
						{
							OFFSET 0.715260 -0.000000 -0.000000 
							CHANNELS 3 Zrotation Yrotation Xrotation
							End Site
							{
								OFFSET 0.000000 0.000000 0.000000 
							}
						}
					}
				}
			}
			JOINT RightArm
			{
				OFFSET -3.136600 1.374050 -0.404650 
				CHANNELS 3 Zrotation Yrotation Xrotation
				JOINT RightForeArm
				{
					OFFSET -5.241900 -0.000000 -0.000000 
					CHANNELS 3 Zrotation Yrotation Xrotation
					JOINT RightHand
					{
						OFFSET -3.444170 -0.000000 -0.000000 
						CHANNELS 3 Zrotation Yrotation Xrotation
						JOINT RightHandIndex1
						{
							OFFSET -0.622530 -0.000000 -0.000000 
							CHANNELS 3 Zrotation Yrotation Xrotation
							End Site
							{
								OFFSET 0.000000 0.000000 0.000000 
							}
						}
					}
				}
			}
		}
	}
}
MOTION
Frames: 10
Frame Time: 0.041667
20.071820 17.574428 43.731672 175.523580 -31.963289 -158.870527 -8.182249 -5.329607 -5.697795 -0.141223 9.297152 26.741386 2.083793 0.161322 22.174679 3.483100 -11.438900 -33.774700 8.996300 -3.079372 -61.347813 -5.427431 -15.507110 44.659119 -0.154361 -1.073720 7.937310 -1.533400 7.817800 -22.162000 2.023135 -5.174095 -1.192984 4.513111 -3.244868 -3.464919 3.797248 3.520484 5.876785 0.431600 1.481300 7.458500 -60.697655 0.367161 34.667245 84.821663 -58.431691 -68.480672 -0.636654 -1.841285 -1.692385 -7.125000 0.000000 0.000000 58.646535 -35.792509 35.634863 -35.686731 47.995638 -20.977376 1.786203 0.775864 -4.332281 7.125000 0.000000 0.000000 
19.900293 17.656499 43.361885 175.442708 -31.733763 -159.000517 -7.996902 -5.345546 -5.421741 -0.089880 9.365777 26.793315 2.183480 1.689857 27.959563 3.044700 -10.767000 -31.498000 8.985148 -3.273335 -60.453090 -4.567956 -14.794934 41.653028 0.078921 -2.448716 10.534717 -1.506400 7.751900 -21.963100 2.010640 -5.224651 -1.130287 4.393633 -3.305018 -3.248032 3.899392 3.767646 6.282381 0.612300 1.588200 7.653100 -61.030832 0.722917 34.800659 85.918745 -58.646015 -69.263807 -0.633159 -1.814268 -1.412244 -7.125000 0.000000 0.000000 58.990906 -36.154561 35.579052 -35.849222 48.184440 -21.096248 2.013014 0.020205 -3.545551 7.125000 0.000000 0.000000 
19.726581 17.722759 42.993449 175.294808 -31.474494 -159.182691 -7.997944 -5.496100 -5.418535 0.193132 9.766025 27.805199 2.433038 2.726951 32.524820 2.571800 -9.967300 -28.870900 9.035355 -3.506928 -59.781909 -4.058902 -14.309291 39.715253 0.293462 -3.685901 12.371602 -1.440300 7.587300 -21.467500 2.014717 -5.251065 -1.054511 4.363527 -3.342775 -3.040646 3.801212 3.894235 6.511624 0.635400 1.623700 7.712500 -61.608439 1.426156 34.830570 87.316517 -58.926897 -70.265791 -0.618612 -1.776897 -1.139502 -7.125000 0.000000 0.000000 59.153186 -36.262978 35.693309 -35.873246 48.243928 -21.094239 1.917137 -0.203948 -2.892100 7.125000 0.000000 0.000000 
19.554638 17.774560 42.622101 175.111405 -31.262437 -159.401695 -8.055850 -5.810516 -5.406230 0.495197 10.214409 29.067709 2.913743 2.833054 36.395484 1.935000 -8.729400 -24.952600 9.268500 -3.934746 -59.048972 -3.651593 -13.863710 38.014605 0.575637 -5.141673 13.878178 -1.429100 7.559200 -21.382900 2.014512 -5.308896 -0.996493 4.312285 -3.381872 -2.946621 3.711129 4.000740 6.740175 0.664200 1.648700 7.752500 -62.292863 2.690209 34.709265 89.260386 -59.304937 -71.703173 -0.573863 -1.723252 -0.957668 -7.125000 0.000000 0.000000 59.313225 -36.377947 35.890690 -35.957374 48.307661 -21.128633 2.032517 -0.058563 -2.151877 7.125000 0.000000 0.000000 
19.383318 17.794428 42.256891 174.978537 -31.099650 -159.766644 -8.229513 -6.013138 -5.729500 0.938243 10.841327 31.026718 3.324217 2.218603 38.767580 1.065400 -6.562000 -18.424000 9.811639 -4.597590 -58.076377 -3.532033 -13.621703 37.103446 1.097339 -7.312410 15.069717 -1.352500 7.362100 -20.792800 2.029068 -5.203183 -0.910031 4.281313 -3.341032 -2.878864 3.621917 3.938318 6.876046 0.671100 1.592800 7.728200 -63.218591 3.391727 35.009705 89.295680 -59.354771 -71.566817 -0.564094 -1.693774 -0.726905 -7.125000 0.000000 0.000000 59.511149 -36.068944 35.992246 -35.990524 48.271875 -21.070242 1.906763 0.262695 -2.203593 7.125000 0.000000 0.000000 
19.211791 17.819497 41.892928 174.869605 -30.852741 -160.117764 -8.472433 -6.110793 -6.087436 1.543808 11.570513 33.326311 3.596428 1.897668 40.680156 0.650500 -5.159200 -14.363100 10.214049 -5.019664 -57.496978 -3.483407 -13.470443 36.530386 1.462451 -8.871964 16.034927 -1.269100 7.140500 -20.132100 2.038852 -5.135153 -0.829994 4.240237 -3.316991 -2.791582 3.535834 3.963523 7.057232 0.690800 1.578100 7.736500 -64.050672 4.270427 35.131043 90.080247 -59.509973 -72.026718 -0.551759 -1.652388 -0.401919 -7.125000 0.000000 0.000000 59.724836 -35.886883 36.041745 -36.065801 48.299834 -21.079907 1.891399 0.288973 -1.956004 7.125000 0.000000 0.000000 
19.040784 17.831147 41.532086 174.796250 -30.588636 -160.529523 -8.791385 -6.169852 -6.597715 2.272026 12.379216 36.063701 3.727358 1.243309 41.508708 0.382600 -3.972300 -10.998900 10.702582 -5.445211 -56.975829 -3.575608 -13.447887 36.440812 1.835187 -10.377589 16.800892 -1.117200 6.714500 -18.872300 2.054302 -5.026963 -0.746220 4.208987 -3.269896 -2.735970 3.440208 3.951382 7.215995 0.696200 1.545300 7.724000 -64.979265 5.207794 35.239519 90.689721 -59.640655 -72.340309 -0.545910 -1.608719 -0.028454 -7.125000 0.000000 0.000000 59.944043 -35.562434 36.053487 -36.142497 48.308510 -21.082823 1.865881 0.339850 -1.825298 7.125000 0.000000 0.000000 
18.870505 17.829170 41.174677 174.775350 -30.310604 -160.999093 -9.114589 -6.159286 -7.226339 3.071571 13.189437 38.989347 3.719030 0.455859 41.437741 0.231800 -3.099000 -8.554400 11.276084 -5.893456 -56.420925 -3.706617 -13.473820 36.568718 2.120179 -11.539072 17.456681 -0.959300 6.236800 -17.472900 2.075776 -4.879596 -0.658323 4.183709 -3.203538 -2.710802 3.339215 3.917118 7.360674 0.691000 1.502600 7.699200 -65.986740 6.177156 35.316240 91.100563 -59.747465 -72.497439 -0.548183 -1.564477 0.381679 -7.125000 0.000000 0.000000 60.180540 -35.088054 36.008645 -36.223833 48.301661 -21.082769 1.845679 0.377782 -1.788324 7.125000 0.000000 0.000000 
18.701474 17.814088 40.821636 174.819462 -30.003477 -161.519925 -9.430366 -6.074088 -8.044508 3.985297 14.027080 42.220269 3.572236 -0.385274 40.486089 0.158400 -2.564200 -7.067800 11.906436 -6.298631 -55.903393 -3.912485 -13.590245 37.078802 2.297925 -12.260012 17.938221 -0.751800 5.538200 -15.450100 2.103574 -4.693002 -0.566973 4.167686 -3.117955 -2.713048 3.232924 3.868023 7.490762 0.675100 1.453800 7.663700 -67.065088 7.158571 35.339874 91.300702 -59.831672 -72.495568 -0.558504 -1.520877 0.799522 -7.125000 0.000000 0.000000 60.429463 -34.443772 35.904924 -36.290641 48.268413 -21.064195 1.824550 0.389236 -1.834137 7.125000 0.000000 0.000000 
18.534315 17.786835 40.473069 174.938965 -29.662486 -162.082839 -9.695518 -5.917510 -9.064084 5.001798 14.863270 45.679960 3.328972 -1.208577 38.811963 0.133500 -2.355200 -6.488400 12.587802 -6.644201 -55.405364 -4.169242 -13.775347 37.913218 2.396307 -12.539396 18.015716 -0.544000 4.725500 -13.127200 2.136990 -4.474236 -0.474693 4.160164 -3.016830 -2.750087 3.125742 3.813922 7.607603 0.651200 1.404300 7.620100 -68.198095 8.168132 35.279693 91.344920 -59.902527 -72.384233 -0.574714 -1.478121 1.175179 -7.125000 0.000000 0.000000 60.684293 -33.628354 35.756412 -36.338217 48.207481 -21.023988 1.815984 0.371084 -1.952432 7.125000 0.000000 0.000000 
